<?xml version="1.0" encoding="utf-8"?>
<!-- Generator: Adobe Illustrator 18.0.0, SVG Export Plug-In . SVG Version: 6.00 Build 0)  -->
<svg version="1.1" id="Layer_1" xmlns="http://www.w3.org/2000/svg" xmlns:xlink="http://www.w3.org/1999/xlink" x="0px" y="0px"
	 viewBox="88.9 199.5 433 393.7" enable-background="new 88.9 199.5 433 393.7" xml:space="preserve">
<g>
	<path fill="#DB075E" d="M370.7,448.2v129.4l136.8-136.8H378.1C373.8,440.8,370.7,443.9,370.7,448.2z"/>
	<path fill="#DB075E" d="M176,402.2h29.9c3.7,0,6.8-3.1,6.8-6.8v-29.9c0-3.7-3.1-6.8-6.8-6.8H176c-3.7,0-6.8,3.1-6.8,6.8v29.9
		C168.5,399.1,171.7,402.2,176,402.2z"/>
	<path fill="#DB075E" d="M176,486.2h29.9c3.7,0,6.8-3.1,6.8-6.8v-29.9c0-3.7-3.1-6.8-6.8-6.8H176c-3.7,0-6.8,3.1-6.8,6.8v29.9
		C168.5,483.1,171.7,486.2,176,486.2z"/>
	<path fill="#DB075E" d="M258.7,402.2h29.9c3.7,0,6.8-3.1,6.8-6.8v-29.9c0-3.7-3.1-6.8-6.8-6.8h-29.9c-3.7,0-6.8,3.1-6.8,6.8v29.9
		C251.9,399.1,255,402.2,258.7,402.2z"/>
	<path fill="#DB075E" d="M515,199.5H95.8c-3.7,0-6.8,3.1-6.8,7.5v378.8c0,4.4,3.1,7.5,7.5,7.5h350.2l0,0h11.2
		c21.1,0,38.6-7.5,49.8-21.8c9.3-11.2,14.3-26.7,14.3-41v-16.2v-18.7V206.9C522.4,202.6,519.3,199.5,515,199.5z M415.5,210
		c19.9,0,36.7,16.2,36.7,36.7s-16.2,36.7-36.7,36.7c-19.9,0-36.7-16.2-36.7-36.7S394.9,210,415.5,210z M196.5,210.7
		c19.9,0,36.1,16.2,36.1,36.1s-16.2,36.1-36.1,36.1s-36.1-16.2-36.1-36.1S176.6,210.7,196.5,210.7z M507.5,494.9l-0.6,35.5
		c0,23.6-14.9,47.3-49.1,47.3h-28.6H104.5V294h403L507.5,494.9L507.5,494.9z"/>
</g>
</svg>
