<?xml version="1.0" encoding="utf-8"?>
<!-- Generator: Adobe Illustrator 18.1.1, SVG Export Plug-In . SVG Version: 6.00 Build 0)  -->
<svg version="1.1" id="Layer_1" xmlns="http://www.w3.org/2000/svg" xmlns:xlink="http://www.w3.org/1999/xlink" x="0px" y="0px"
	 viewBox="0 0 98.4 100" enable-background="new 0 0 98.4 100" xml:space="preserve">
<g>
	<path fill="#FFFFFF" d="M59.6,58.4v20.8l22-22H60.8C60.1,57.2,59.6,57.7,59.6,58.4z"/>
	<path fill="#FFFFFF" d="M28.3,51h4.8c0.6,0,1.1-0.5,1.1-1.1v-4.8c0-0.6-0.5-1.1-1.1-1.1h-4.8c-0.6,0-1.1,0.5-1.1,1.1v4.8
		C27.1,50.5,27.6,51,28.3,51z"/>
	<path fill="#FFFFFF" d="M28.3,64.5h4.8c0.6,0,1.1-0.5,1.1-1.1v-4.8c0-0.6-0.5-1.1-1.1-1.1h-4.8c-0.6,0-1.1,0.5-1.1,1.1v4.8
		C27.1,64,27.6,64.5,28.3,64.5z"/>
	<path fill="#FFFFFF" d="M41.6,51h4.8c0.6,0,1.1-0.5,1.1-1.1v-4.8c0-0.6-0.5-1.1-1.1-1.1h-4.8c-0.6,0-1.1,0.5-1.1,1.1v4.8
		C40.5,50.5,41,51,41.6,51z"/>
	<path fill="#FFFFFF" d="M82.8,18.4H15.4c-0.6,0-1.1,0.5-1.1,1.2v60.9c0,0.7,0.5,1.2,1.2,1.2h56.3v0l1.8,0c3.4,0,6.2-1.2,8-3.5
		c1.5-1.8,2.3-4.3,2.3-6.6v-2.6v-3V19.6C84,18.9,83.5,18.4,82.8,18.4z M66.8,20.1c3.2,0,5.9,2.6,5.9,5.9s-2.6,5.9-5.9,5.9
		c-3.2,0-5.9-2.6-5.9-5.9S63.5,20.1,66.8,20.1z M31.6,20.2c3.2,0,5.8,2.6,5.8,5.8s-2.6,5.8-5.8,5.8s-5.8-2.6-5.8-5.8
		S28.4,20.2,31.6,20.2z M81.6,65.9l-0.1,5.7c0,3.8-2.4,7.6-7.9,7.6L69,79.2H16.8V33.6h64.8L81.6,65.9L81.6,65.9z"/>
</g>
</svg>
