<?xml version="1.0" encoding="utf-8"?>
<!-- Generator: Adobe Illustrator 18.0.0, SVG Export Plug-In . SVG Version: 6.00 Build 0)  -->
<svg version="1.1" id="Layer_1" xmlns="http://www.w3.org/2000/svg" xmlns:xlink="http://www.w3.org/1999/xlink" x="0px" y="0px"
	 viewBox="31.1 195.7 549.8 400.5" enable-background="new 31.1 195.7 549.8 400.5" xml:space="preserve">
<g>
	<path fill="#DB075E" d="M246.3,311.4h252.5c1.9,0,3.7-1.9,3.7-3.7v-7.5c0-1.9-1.9-3.7-3.7-3.7H246.3c-1.9,0-3.7,1.9-3.7,3.7v7.5
		C241.9,310.2,243.8,311.4,246.3,311.4z"/>
	<path fill="#DB075E" d="M246.3,404.7h252.5c1.9,0,3.7-1.9,3.7-3.7v-7.5c0-1.9-1.9-3.7-3.7-3.7H246.3c-1.9,0-3.7,1.9-3.7,3.7v7.5
		C241.9,402.8,243.8,404.7,246.3,404.7z"/>
	<path fill="#DB075E" d="M246.3,498h252.5c1.9,0,3.7-1.9,3.7-3.7v-7.5c0-1.9-1.9-3.7-3.7-3.7H246.3c-1.9,0-3.7,1.9-3.7,3.7v7.5
		C241.9,496.1,243.8,498,246.3,498z"/>
	<path fill="#DB075E" d="M577.2,195.7H151.8c-1.9,0-3.7,1.9-3.7,3.7v81.5c0,15.5-13.1,28.6-28.6,28.6h-84c-1.9,0-3.7,1.9-3.7,3.7
		l-0.6,223.3v0.6c2.5,20.5,21.1,59.1,72.8,59.1h413c21.1,0,38.6-7.5,49.8-21.8c9.3-11.2,14.3-26.7,14.3-41v-334
		C580.9,197.6,579,195.7,577.2,195.7z M138.7,568.3c-7.5,8.1-19.3,12.4-34.8,12.4c-43.5,0-54.1-31.7-56.6-41.7
		c-0.6-1.9-0.6-3.7-0.6-6.2l0.6-178.5c0-15.5,13.1-28.6,28.6-28.6h43.5c15.5,0,28.6,13.1,28.6,28.6v6.8c0,15.5-13.1,28.6-28.6,28.6
		c-1.9,0-3.7,1.9-3.7,3.7v7.5c0,1.9,1.9,3.7,3.7,3.7c15.5,0,28.6,13.1,28.6,28.6v20.5c0,15.5-13.1,28.6-28.6,28.6
		c-1.9,0-3.7,1.9-3.7,3.7v7.5c0,1.9,1.9,3.7,3.7,3.7c15.5,0,28.6,13.1,28.6,28.6v11.8l0,0C148,544,147.4,558.3,138.7,568.3z
		 M565.4,239.9v28.6v265c0,23.6-14.9,47.3-49.1,47.3H191.6c-0.6,0-1.9,0-2.5,0h-19.3c-3.7,0-6.8-3.1-6.8-7.5v-16.2
		c-0.6-2.5-0.6-5,0-8.1c0-1.2,0-1.9,0-3.1v-22.4l0,0V239.9l0,0v-21.1c0-4.4,3.1-7.5,6.8-7.5h21.8h9.3H528h9.3h21.8
		c3.7,0,6.8,3.1,6.8,7.5v21.1H565.4z"/>
</g>
</svg>
