<?xml version="1.0" encoding="utf-8"?>
<!-- Generator: Adobe Illustrator 18.1.1, SVG Export Plug-In . SVG Version: 6.00 Build 0)  -->
<svg version="1.1" id="Layer_1" xmlns="http://www.w3.org/2000/svg" xmlns:xlink="http://www.w3.org/1999/xlink" x="0px" y="0px"
	 viewBox="0 0 98.4 100" enable-background="new 0 0 98.4 100" xml:space="preserve">
<g>
	<path fill="#FFFFFF" d="M39.6,36.4h40.6c0.3,0,0.6-0.3,0.6-0.6v-1.2c0-0.3-0.3-0.6-0.6-0.6H39.6c-0.3,0-0.6,0.3-0.6,0.6v1.2
		C38.9,36.2,39.2,36.4,39.6,36.4z"/>
	<path fill="#FFFFFF" d="M39.6,51.4h40.6c0.3,0,0.6-0.3,0.6-0.6v-1.2c0-0.3-0.3-0.6-0.6-0.6H39.6c-0.3,0-0.6,0.3-0.6,0.6v1.2
		C38.9,51.1,39.2,51.4,39.6,51.4z"/>
	<path fill="#FFFFFF" d="M39.6,66.4h40.6c0.3,0,0.6-0.3,0.6-0.6v-1.2c0-0.3-0.3-0.6-0.6-0.6H39.6c-0.3,0-0.6,0.3-0.6,0.6v1.2
		C38.9,66.1,39.2,66.4,39.6,66.4z"/>
	<path fill="#FFFFFF" d="M92.8,17.8H24.4c-0.3,0-0.6,0.3-0.6,0.6v13.1c0,2.5-2.1,4.6-4.6,4.6H5.7c-0.3,0-0.6,0.3-0.6,0.6L5,72.6
		l0,0.1c0.4,3.3,3.4,9.5,11.7,9.5l66.4,0c3.4,0,6.2-1.2,8-3.5c1.5-1.8,2.3-4.3,2.3-6.6V18.4C93.4,18.1,93.1,17.8,92.8,17.8z
		 M22.3,77.7c-1.2,1.3-3.1,2-5.6,2c-7,0-8.7-5.1-9.1-6.7c-0.1-0.3-0.1-0.6-0.1-1l0.1-28.7c0-2.5,2.1-4.6,4.6-4.6h7
		c2.5,0,4.6,2.1,4.6,4.6v1.1c0,2.5-2.1,4.6-4.6,4.6c-0.3,0-0.6,0.3-0.6,0.6v1.2c0,0.3,0.3,0.6,0.6,0.6c2.5,0,4.6,2.1,4.6,4.6v3.3
		c0,2.5-2.1,4.6-4.6,4.6c-0.3,0-0.6,0.3-0.6,0.6v1.2c0,0.3,0.3,0.6,0.6,0.6c2.5,0,4.6,2.1,4.6,4.6l0,1.9h0
		C23.8,73.8,23.7,76.1,22.3,77.7z M90.9,24.9v4.6v42.6c0,3.8-2.4,7.6-7.9,7.6H30.8c-0.1,0-0.3,0-0.4,0h-3.1c-0.6,0-1.1-0.5-1.1-1.2
		v-2.6c-0.1-0.4-0.1-0.8,0-1.3c0-0.2,0-0.3,0-0.5v-3.6h0l0-45.6c0,0,0,0,0,0v-3.4c0-0.7,0.5-1.2,1.1-1.2h3.5h1.5h52.6h1.5h3.5
		c0.6,0,1.1,0.5,1.1,1.2V24.9z"/>
</g>
</svg>
