<?xml version="1.0" encoding="utf-8"?>
<!-- Generator: Adobe Illustrator 18.1.1, SVG Export Plug-In . SVG Version: 6.00 Build 0)  -->
<svg version="1.1" id="Layer_1" xmlns="http://www.w3.org/2000/svg" xmlns:xlink="http://www.w3.org/1999/xlink" x="0px" y="0px"
	 viewBox="0 0 100 100" enable-background="new 0 0 100 100" xml:space="preserve">
<g>
	<path fill="#FFFFFF" d="M26.7,58.1c0,1.1,1,1.6,2,1.6c1.6,0,2.7-0.9,2.7-2.2v-0.7c-0.8-0.2-1.6-0.3-2.4-0.3
		C27.6,56.5,26.7,57.1,26.7,58.1z"/>
	<path fill="#FFFFFF" d="M36.7,69.1c-0.9,0-1.6,0.7-1.8,1.8h3.5C38.3,69.9,37.7,69.1,36.7,69.1z"/>
	<path fill="#FFFFFF" d="M48.8,69.2c-1,0-2,0.9-2,2.2v0c0,1.3,0.9,2.2,2,2.2c1.1,0,1.9-0.8,1.9-2.2v0C50.7,70,49.8,69.2,48.8,69.2z"
		/>
	<path fill="#FFFFFF" d="M54.9,72.7L54.9,72.7c0,0.7,0.6,1,1.3,1c1,0,1.8-0.6,1.8-1.4v-0.5c-0.4-0.2-0.9-0.3-1.5-0.3
		C55.5,71.6,54.9,72,54.9,72.7z"/>
	<path fill="#FFFFFF" d="M28.7,69.2c-1,0-2,0.9-2,2.2v0c0,1.3,0.9,2.2,2,2.2c1.1,0,1.9-0.8,1.9-2.2v0C30.6,70,29.7,69.2,28.7,69.2z"
		/>
	<path fill="#FFFFFF" d="M71.8,29.2h-8.1v8.1h8.1V29.2z M69,34.7h-2.7V32H69V34.7z"/>
	<path fill="#FFFFFF" d="M73.8,20.3H25.5c-3.8,0-6.9,3.1-6.9,6.9v48.3c0,3.8,3.1,6.9,6.9,6.9h48.3c3.8,0,6.9-3.1,6.9-6.9V27.2
		C80.7,23.4,77.6,20.3,73.8,20.3z M34.8,48.9c0-0.5,0.4-0.9,0.9-0.9c0.5,0,0.9,0.4,0.9,0.9v11.3c0,0.5-0.4,0.9-0.9,0.9
		c-0.5,0-0.9-0.4-0.9-0.9V48.9z M32.2,71.4c0,2.2-1.5,3.5-3.1,3.5c-1.1,0-1.8-0.6-2.3-1.2V74c0,0.4-0.3,0.8-0.8,0.8
		c-0.4,0-0.8-0.3-0.8-0.8v-7.9c0-0.4,0.3-0.8,0.8-0.8c0.4,0,0.8,0.3,0.8,0.8v3c0.5-0.7,1.2-1.3,2.3-1.3
		C30.6,67.8,32.2,69.1,32.2,71.4L32.2,71.4z M33.2,60.2c0,0.5-0.4,0.9-0.8,0.9c-0.5,0-0.8-0.4-0.8-0.8V60c-0.6,0.6-1.6,1.2-3,1.2
		c-1.7,0-3.5-1-3.5-3c0-1.9,1.5-3.1,4-3.1c1.1,0,1.9,0.1,2.5,0.3v0c0-1.8-1.3-2.2-2.4-2.2c-0.8,0-1.5,0.2-2.2,0.5
		c-0.1,0-0.2,0.1-0.3,0.1c-0.4,0-0.8-0.4-0.8-0.8c0-0.4,0.3-0.7,0.5-0.7c1-0.4,1.9-0.6,3-0.6c1.3,0,2.3,0.3,3,1c0.6,0.6,1,1.6,1,2.7
		V60.2z M39.2,71.9h-4.2c0.2,1.1,0.9,1.7,1.9,1.7c0.7,0,1.2-0.2,1.6-0.6c0.1-0.1,0.2-0.1,0.4-0.1c0.3,0,0.6,0.3,0.6,0.6
		c0,0.2-0.1,0.4-0.2,0.5c-0.6,0.5-1.4,0.9-2.4,0.9c-2,0-3.5-1.4-3.5-3.5v0c0-1.9,1.4-3.5,3.3-3.5c2.1,0,3.2,1.8,3.2,3.3
		C39.9,71.6,39.6,71.9,39.2,71.9z M41.7,59.5c0.3,0,0.5-0.1,0.6-0.1c0.1,0,0.1,0,0.2,0c0.4,0,0.8,0.3,0.8,0.8c0,0.3-0.2,0.6-0.5,0.7
		c-0.4,0.2-0.9,0.3-1.4,0.3c-1.7,0-2.7-1-2.7-2.7v-5.1h-0.5c-0.4,0-0.8-0.4-0.8-0.8c0-0.4,0.4-0.8,0.8-0.8h0.5v-1.9
		c0-0.5,0.4-0.9,0.9-0.9c0.5,0,0.9,0.4,0.9,0.9v1.9h2.1c0.4,0,0.8,0.4,0.8,0.8c0,0.4-0.4,0.8-0.8,0.8h-2.1v4.9
		C40.4,59.1,40.8,59.5,41.7,59.5z M52.3,71.4c0,2.2-1.5,3.5-3.1,3.5c-1.1,0-1.8-0.6-2.3-1.2V74c0,0.4-0.3,0.8-0.8,0.8
		c-0.4,0-0.8-0.3-0.8-0.8v-7.9c0-0.4,0.3-0.8,0.8-0.8c0.4,0,0.8,0.3,0.8,0.8v3c0.5-0.7,1.2-1.3,2.3-1.3
		C50.7,67.8,52.3,69.1,52.3,71.4L52.3,71.4z M59.5,74c0,0.4-0.3,0.7-0.8,0.7c-0.4,0-0.8-0.3-0.8-0.7v-0.3c-0.5,0.5-1.2,1-2.2,1
		c-1.3,0-2.4-0.7-2.4-2.1v0c0-1.5,1.1-2.2,2.8-2.2c0.8,0,1.3,0.1,1.8,0.3v-0.2c0-1-0.6-1.5-1.7-1.5c-0.6,0-1.1,0.1-1.5,0.3
		c-0.1,0-0.2,0-0.2,0c-0.4,0-0.7-0.3-0.7-0.6c0-0.3,0.2-0.5,0.4-0.6c0.6-0.2,1.3-0.4,2.2-0.4c1,0,1.8,0.3,2.2,0.8
		c0.5,0.5,0.7,1.2,0.7,2.1V74z M59.6,34.7c-1.4,0-1.4,0-1.4-1.4s0-1.4,1.4-1.4h1.4v-4.1c0-1.4,0-1.4,1.4-1.4h10.8
		c1.4,0,1.4,0,1.4,1.4v13.5c0,1.4,0,1.4-1.4,1.4c-1.4,0-1.4,0-1.4-1.4v-1.4h-9.5c-1.4,0-1.4,0-1.4-1.4v-4.1H59.6z M66.9,73.9
		c-0.6,0.6-1.3,1-2.5,1c-2,0-3.5-1.6-3.5-3.5v0c0-1.9,1.5-3.5,3.5-3.5c1.1,0,1.8,0.3,2.4,0.8c0.1,0.1,0.2,0.3,0.2,0.5
		c0,0.4-0.3,0.7-0.7,0.7c-0.2,0-0.4-0.1-0.5-0.2c-0.4-0.3-0.8-0.6-1.4-0.6c-1.1,0-2,1-2,2.1v0c0,1.2,0.8,2.2,2,2.2
		c0.6,0,1.1-0.2,1.5-0.6c0.1-0.1,0.2-0.2,0.4-0.2c0.4,0,0.7,0.3,0.7,0.7C67.2,73.6,67.1,73.8,66.9,73.9z M73.9,74.8
		c-0.3,0-0.5-0.1-0.7-0.3l-1.9-2.6l-1,1V74c0,0.4-0.3,0.8-0.8,0.8c-0.4,0-0.8-0.3-0.8-0.8v-7.9c0-0.4,0.3-0.8,0.8-0.8
		s0.8,0.3,0.8,0.8v5l2.9-2.8c0.2-0.2,0.4-0.3,0.7-0.3c0.4,0,0.7,0.3,0.7,0.7c0,0.3-0.1,0.4-0.3,0.7l-1.8,1.6l2,2.7
		c0.1,0.2,0.2,0.3,0.2,0.5C74.6,74.5,74.2,74.8,73.9,74.8z"/>
</g>
</svg>
