<?xml version="1.0" encoding="utf-8"?>
<!-- Generator: Adobe Illustrator 18.1.1, SVG Export Plug-In . SVG Version: 6.00 Build 0)  -->
<svg version="1.1" id="Layer_1" xmlns="http://www.w3.org/2000/svg" xmlns:xlink="http://www.w3.org/1999/xlink" x="0px" y="0px"
	 viewBox="0 0 100 100" enable-background="new 0 0 100 100" xml:space="preserve">
<path fill="#FFFFFF" d="M76,84.1H23.4c-4.2,0-7.5-3.4-7.5-7.5V23.9c0-4.2,3.4-7.5,7.5-7.5H76c4.2,0,7.5,3.4,7.5,7.5v52.6
	C83.6,80.7,80.2,84.1,76,84.1 M23.4,17.8c-3.4,0-6.1,2.8-6.1,6.1v52.6c0,3.4,2.8,6.1,6.1,6.1H76c3.4,0,6.1-2.8,6.1-6.1V23.9
	c0-3.4-2.8-6.1-6.1-6.1H23.4z"/>
<path fill="#FFFFFF" d="M23.1,57.7L23.1,57.7c0-2.1,1.7-3.1,4.1-3.1c1.2,0,2.1,0.2,3,0.4v-0.3c0-1.7-1.1-2.6-2.9-2.6
	c-1,0-1.8,0.2-2.5,0.5c-0.1,0-0.2,0.1-0.3,0.1c-0.3,0-0.6-0.3-0.6-0.6c0-0.3,0.2-0.5,0.4-0.6c0.9-0.4,1.9-0.6,3.1-0.6
	c1.4,0,2.4,0.4,3.1,1.1c0.6,0.6,1,1.6,1,2.8v5.3c0,0.4-0.3,0.7-0.7,0.7c-0.4,0-0.7-0.3-0.7-0.7V59c-0.7,0.9-1.8,1.7-3.5,1.7
	C24.9,60.6,23.1,59.6,23.1,57.7 M30.2,56.9V56c-0.7-0.2-1.7-0.4-2.8-0.4c-1.8,0-2.8,0.8-2.8,2v0c0,1.2,1.1,1.9,2.4,1.9
	C28.7,59.5,30.2,58.4,30.2,56.9"/>
<path fill="#FFFFFF" d="M33.8,47.5c0-0.4,0.3-0.7,0.7-0.7c0.4,0,0.7,0.3,0.7,0.7v12.3c0,0.4-0.3,0.7-0.7,0.7s-0.7-0.3-0.7-0.7V47.5z
	"/>
<path fill="#FFFFFF" d="M38,57.9v-5.8h-0.8c-0.3,0-0.6-0.3-0.6-0.6c0-0.4,0.3-0.6,0.6-0.6H38v-2.3c0-0.4,0.3-0.7,0.7-0.7
	c0.4,0,0.7,0.3,0.7,0.7v2.3H42c0.4,0,0.6,0.3,0.6,0.6c0,0.4-0.3,0.6-0.6,0.6h-2.5v5.6c0,1.2,0.6,1.6,1.6,1.6c0.5,0,0.8-0.1,0.9-0.1
	c0.3,0,0.6,0.3,0.6,0.6c0,0.3-0.2,0.5-0.4,0.6c-0.4,0.2-0.9,0.3-1.4,0.3C39.2,60.6,38,59.9,38,57.9"/>
<path fill="#FFFFFF" d="M23.2,70.9L23.2,70.9c0-2.7,2.1-5,4.9-5c1.6,0,2.7,0.6,3.5,1.4c0.1,0.1,0.2,0.3,0.2,0.5
	c0,0.4-0.3,0.7-0.7,0.7c-0.2,0-0.4-0.1-0.5-0.2c-0.7-0.6-1.5-1.1-2.6-1.1c-1.9,0-3.4,1.7-3.4,3.7v0c0,2.1,1.5,3.7,3.5,3.7
	c1.1,0,2-0.5,2.7-1.2c0.1-0.1,0.2-0.2,0.4-0.2c0.4,0,0.6,0.3,0.6,0.6c0,0.2-0.1,0.3-0.2,0.4c-0.9,0.9-2,1.5-3.6,1.5
	C25.4,75.9,23.2,73.6,23.2,70.9"/>
<path fill="#FFFFFF" d="M33.8,62.8c0-0.4,0.3-0.7,0.7-0.7c0.4,0,0.7,0.3,0.7,0.7V75c0,0.4-0.3,0.7-0.7,0.7s-0.7-0.3-0.7-0.7V62.8z"
	/>
<path fill="#FFFFFF" d="M46.4,75c0,0.4-0.3,0.7-0.7,0.7c-0.4,0-0.7-0.3-0.7-0.7v-1c-0.6,1-1.6,1.9-3.3,1.9c-2.3,0-3.7-1.6-3.7-3.8
	v-5.3c0-0.4,0.3-0.7,0.7-0.7c0.4,0,0.7,0.3,0.7,0.7v5c0,1.8,1,2.9,2.7,2.9c1.6,0,2.9-1.2,2.9-3v-4.9c0-0.4,0.3-0.7,0.7-0.7
	c0.4,0,0.7,0.3,0.7,0.7V75z"/>
<path fill="#FFFFFF" d="M48.5,62.8c0-0.4,0.3-0.7,0.7-0.7c0.4,0,0.7,0.3,0.7,0.7V68c0.8-1.2,1.9-2.1,3.7-2.1c2.3,0,4.6,1.8,4.6,5v0
	c0,3.1-2.3,5-4.6,5c-1.8,0-2.9-1-3.7-2V75c0,0.4-0.3,0.7-0.7,0.7c-0.4,0-0.7-0.3-0.7-0.7V62.8z M56.7,70.9L56.7,70.9
	c0-2.3-1.6-3.7-3.4-3.7c-1.8,0-3.5,1.5-3.5,3.7v0c0,2.2,1.7,3.7,3.5,3.7C55.2,74.6,56.7,73.2,56.7,70.9"/>
</svg>
