<?xml version="1.0" encoding="utf-8"?>
<!-- Generator: Adobe Illustrator 18.0.0, SVG Export Plug-In . SVG Version: 6.00 Build 0)  -->
<svg version="1.1" id="Layer_1" xmlns="http://www.w3.org/2000/svg" xmlns:xlink="http://www.w3.org/1999/xlink" x="0px" y="0px"
	 viewBox="17.4 195.7 576.7 399.9" enable-background="new 17.4 195.7 576.7 399.9" xml:space="preserve">
<path fill="#DB075E" d="M590.2,580.7h-46v-33.6l0,0V373c0-1.9-1.9-3.7-3.7-3.7H390.6V199.5c0-1.9-1.9-3.7-3.7-3.7h-46.6h-29.9H301
	h-27.4h-49.1c-2.5,0-3.7,1.9-3.7,3.7v57.2c0,0.6,0,1.2,0,1.9v23.6h-38.6h-26.1h-9.3H120H70.9c-2.5,0-3.7,1.9-3.7,3.7v104.5v69.7
	v120.7h-46c-1.9,0-3.7,1.9-3.7,3.7v7.5c0,1.9,1.9,3.7,3.7,3.7h569.1c1.9,0,3.7-1.9,3.7-3.7v-7.5
	C594.6,582.6,592.7,580.7,590.2,580.7z M220.8,326.3V345v10V391v69.7v120.7H82.7V460.7V391V355v-28.6v-21.1c0-4.4,3.1-7.5,6.8-7.5
	h21.8h9.3l0,0h26.7h9.3h26.1h0.6h9.3h21.8c3.7,0,6.8,3.1,6.8,7.5v21.1H220.8z M375,268.5L375,268.5V327v46v56c0,0.6,0,1.9,0,2.5
	v149.9H236.3V460.7v-87.1l0,0V268.5v-11.8v-37.9c0-4.4,3.1-7.5,6.8-7.5H265h9.3H301l0,0h9.3l0,0h26.7h9.3h21.8
	c3.7,0,6.8,3.1,6.8,7.5L375,268.5L375,268.5z M529.3,413.4V442v48.5l0,0v90.8H390.6v-33.6V442v-13.7v-36.1c0-4.4,3.1-7.5,6.8-7.5
	h21.8c0,0,0,0,0.6,0h13.1h23h9.3h32.3h3.7c0,0,0,0,0.6,0h20.5c3.7,0,6.8,3.1,6.8,7.5V413.4z"/>
</svg>
