<?xml version="1.0" encoding="utf-8"?>
<!-- Generator: Adobe Illustrator 18.1.1, SVG Export Plug-In . SVG Version: 6.00 Build 0)  -->
<svg version="1.1" id="Layer_1" xmlns="http://www.w3.org/2000/svg" xmlns:xlink="http://www.w3.org/1999/xlink" x="0px" y="0px"
	 viewBox="0 0 98.4 100" enable-background="new 0 0 98.4 100" xml:space="preserve">
<path fill="#FFFFFF" d="M94.9,79.7h-7.4v-5.4h0v-28c0-0.3-0.3-0.6-0.6-0.6H62.8V18.4c0-0.3-0.3-0.6-0.6-0.6h-7.5h-4.8h-1.5h-4.4
	h-7.9c-0.4,0-0.6,0.3-0.6,0.6v9.2c0,0.1,0,0.2,0,0.3v3.8h-6.2h-4.2h-1.5h-4.3h-7.9c-0.4,0-0.6,0.3-0.6,0.6v16.8v11.2v19.4H3.4
	c-0.3,0-0.6,0.3-0.6,0.6v1.2c0,0.3,0.3,0.6,0.6,0.6h91.5c0.3,0,0.6-0.3,0.6-0.6v-1.2C95.6,80,95.3,79.7,94.9,79.7z M35.5,38.8v3v1.6
	v5.8v11.2v19.4H13.3V60.4V49.2v-5.8v-4.6v-3.4c0-0.7,0.5-1.2,1.1-1.2h3.5h1.5h0h4.3h1.5h4.2h0.1h1.5h3.5c0.6,0,1.1,0.5,1.1,1.2V38.8
	z M60.3,29.5L60.3,29.5l0,9.4v7.4v9c0,0.1,0,0.3,0,0.4l0,24.1H38V60.4V46.4h0V29.5v-1.9v-6.1c0-0.7,0.5-1.2,1.1-1.2h3.5h1.5h4.3v0
	h1.5v0h4.3h1.5h3.5c0.6,0,1.1,0.5,1.1,1.2V29.5z M85.1,52.8v4.6v7.8h0v14.6H62.8v-5.4V57.4v-2.2v-5.8c0-0.7,0.5-1.2,1.1-1.2h3.5
	c0,0,0,0,0.1,0h2.1h3.7h1.5h5.2h0.6c0,0,0,0,0.1,0H84c0.6,0,1.1,0.5,1.1,1.2V52.8z"/>
</svg>
