<?xml version="1.0" encoding="utf-8"?>
<!-- Generator: Adobe Illustrator 18.1.1, SVG Export Plug-In . SVG Version: 6.00 Build 0)  -->
<svg version="1.1" id="Layer_1" xmlns="http://www.w3.org/2000/svg" xmlns:xlink="http://www.w3.org/1999/xlink" x="0px" y="0px"
	 viewBox="0 0 98.4 100" enable-background="new 0 0 98.4 100" xml:space="preserve">
<g>
	<path fill="#FFFFFF" d="M38.9,32.4l0,8.2c0,0.7-0.5,1.2-1.2,1.2H19.7c-0.6,0-1.2-0.5-1.2-1.2v-8.1h0l0-8.2c0-0.7,0.5-1.2,1.2-1.2
		h18.1c0.6,0,1.2,0.5,1.2,1.2L38.9,32.4L38.9,32.4z"/>
	<path fill="#FFFFFF" d="M79.9,67.6l0,8.2c0,0.7-0.5,1.2-1.2,1.2H60.7c-0.6,0-1.2-0.5-1.2-1.2v-8.1h0l0-8.2c0-0.7,0.5-1.2,1.2-1.2
		h18.1c0.6,0,1.2,0.5,1.2,1.2L79.9,67.6L79.9,67.6z"/>
	<path fill="#FFFFFF" d="M84.2,23v-3.4c0-0.4-0.3-0.6-0.6-0.6h-3.7H66.8h-5.3h-5.7c-0.4,0-0.6,0.3-0.6,0.6v16.8v5.3h0v3.4
		c0,0.4,0.3,0.6,0.6,0.6h3.7h13.1h5.3h5.7c0.4,0,0.6-0.3,0.6-0.6V28.3L84.2,23L84.2,23z M81.8,42.1c0,0.7-0.5,1.2-1.1,1.2H60.6
		c0,0,0,0,0,0h-1.7c-0.7,0-1.2-0.5-1.2-1.1V22.6c0-0.7,0.5-1.2,1.1-1.2h20.1c0,0,0,0,0,0h1.7c0.7,0,1.2,0.5,1.2,1.1V42.1z"/>
	<path fill="#FFFFFF" d="M43.3,58.3v-3.4c0-0.4-0.3-0.6-0.6-0.6h-3.7H25.8h-5.3h-5.7c-0.4,0-0.6,0.3-0.6,0.6v16.8V77h0v3.4
		c0,0.4,0.3,0.6,0.6,0.6h3.7h13.1h5.3h5.7c0.4,0,0.6-0.3,0.6-0.6V63.6L43.3,58.3L43.3,58.3z M40.8,77.4c0,0.7-0.5,1.2-1.1,1.2H19.6
		c0,0,0,0,0,0h-1.7c-0.7,0-1.2-0.5-1.2-1.1V57.9c0-0.7,0.5-1.2,1.1-1.2h20.1c0,0,0,0,0,0h1.7c0.7,0,1.2,0.5,1.2,1.1V77.4z"/>
</g>
</svg>
