<?xml version="1.0" encoding="utf-8"?>
<!-- Generator: Adobe Illustrator 18.0.0, SVG Export Plug-In . SVG Version: 6.00 Build 0)  -->
<svg version="1.1" id="Layer_1" xmlns="http://www.w3.org/2000/svg" xmlns:xlink="http://www.w3.org/1999/xlink" x="0px" y="0px"
	 viewBox="88.3 203.2 435.4 385.6" enable-background="new 88.3 203.2 435.4 385.6" xml:space="preserve">
<g>
	<path fill="#DB075E" d="M241.9,286.5v51c0,4.4-3.1,7.5-7.5,7.5h-112c-3.7,0-7.5-3.1-7.5-7.5v-50.4l0,0v-51c0-4.4,3.1-7.5,7.5-7.5
		h112.6c3.7,0,7.5,3.1,7.5,7.5L241.9,286.5L241.9,286.5z"/>
	<path fill="#DB075E" d="M496.9,505.5v51c0,4.4-3.1,7.5-7.5,7.5h-112c-3.7,0-7.5-3.1-7.5-7.5v-50.4l0,0v-51c0-4.4,3.1-7.5,7.5-7.5
		h112.6c3.7,0,7.5,3.1,7.5,7.5L496.9,505.5L496.9,505.5z"/>
	<path fill="#DB075E" d="M523.7,228.1v-21.1c0-2.5-1.9-3.7-3.7-3.7h-23h-81.5h-33H347c-2.5,0-3.7,1.9-3.7,3.7v104.5v33l0,0v21.1
		c0,2.5,1.9,3.7,3.7,3.7h23h81.5h33H520c2.5,0,3.7-1.9,3.7-3.7V261L523.7,228.1L523.7,228.1z M508.8,346.9c0,4.4-3.1,7.5-6.8,7.5
		h-125l0,0h-10.6c-4.4,0-7.5-3.1-7.5-6.8V225.6c0-4.4,3.1-7.5,6.8-7.5h125l0,0h10.6c4.4,0,7.5,3.1,7.5,6.8L508.8,346.9L508.8,346.9z
		"/>
	<path fill="#DB075E" d="M269.3,447.6v-21.1c0-2.5-1.9-3.7-3.7-3.7h-23h-82.1h-33H92c-2.5,0-3.7,1.9-3.7,3.7V531v33l0,0v21.1
		c0,2.5,1.9,3.7,3.7,3.7h23h81.5h33H265c2.5,0,3.7-1.9,3.7-3.7V480.6L269.3,447.6L269.3,447.6z M253.8,566.4c0,4.4-3.1,7.5-6.8,7.5
		h-125l0,0h-10.6c-4.4,0-7.5-3.1-7.5-6.8V445.1c0-4.4,3.1-7.5,6.8-7.5h125l0,0h10.6c4.4,0,7.5,3.1,7.5,6.8L253.8,566.4L253.8,566.4z
		"/>
</g>
</svg>
