<?xml version="1.0" encoding="utf-8"?>
<!-- Generator: Adobe Illustrator 18.1.1, SVG Export Plug-In . SVG Version: 6.00 Build 0)  -->
<svg version="1.1" id="Layer_1" xmlns="http://www.w3.org/2000/svg" xmlns:xlink="http://www.w3.org/1999/xlink" x="0px" y="0px"
	 viewBox="0 0 98.4 100" enable-background="new 0 0 98.4 100" xml:space="preserve">
<g>
	<path fill="#FFFFFF" d="M19.6,81.7h59.3l0.4-2.5c0.1-1,0.2-2.2,0-3.4c0-0.4-0.1-0.6-0.1-0.9c-0.1-0.3-0.1-0.5-0.1-0.7
		c-0.1-0.2-0.1-0.4-0.1-0.5c-0.2-0.5-0.3-0.9-0.5-1.2c-2.4-5.1-9.6-8.3-13.5-10c-0.4-0.2-0.6-0.3-0.9-0.4l-0.6-0.2l-0.2-0.1
		c-0.6-0.2-1.2-0.5-1.7-0.7l-0.7-0.3c-1.1-0.5-1.9-1-2.4-1.4l-0.6-0.7c-0.6-2.1,0.6-3.8,2.5-6.4c0.6-0.8,1.3-1.7,1.8-2.6
		c1.9-3.5,3.4-7.9,3.6-11.4c0.5-6.3-1-11.5-4.4-15.2c-3-3.3-7.2-5-12.2-5S40,20,37,23.2c-3.4,3.7-4.9,8.9-4.4,15.2
		c0.3,3.4,1.7,7.9,3.6,11.4c0.5,0.9,1.1,1.7,1.8,2.6c1.6,2.1,3.1,4,2.5,6.2l-0.4,0.6L40,59.4c-0.5,0.5-1.2,0.9-2.3,1.4l-0.6,0.3
		c-0.7,0.3-1.4,0.6-2.1,0.8l-0.6,0.2c-0.4,0.2-0.7,0.3-1,0.4c-4.3,1.9-11.4,5-13.6,10.3c-0.1,0.3-0.2,0.5-0.3,0.7
		c-0.1,0.3-0.1,0.4-0.2,0.5c-0.1,0.3-0.1,0.5-0.1,0.8c-0.1,0.3-0.1,0.6-0.1,0.9c-0.1,0.7-0.1,1.4-0.1,2c0,0.4,0,0.7,0.1,1l0,0.2
		l0,0.3L19.6,81.7z M39.6,51.2c-0.6-0.8-1.2-1.6-1.6-2.3c-1.8-3.2-3.1-7.4-3.4-10.5c-0.5-5.7,0.9-10.4,3.9-13.7
		c2.6-2.8,6.3-4.3,10.7-4.3s8.1,1.5,10.7,4.3c3,3.2,4.3,8,3.9,13.7c-0.3,3.2-1.6,7.3-3.4,10.5c-0.4,0.8-1,1.5-1.7,2.4
		c-1.4,1.8-3,4-3,6.5l0,0.4l-1.5,1.6c-1.3,1.4-3.1,2.2-5,2.2c-1.9,0-3.7-0.8-5-2.2l-1.5-1.6v-0.4C42.7,55.1,41,52.9,39.6,51.2z
		 M21.4,74.2c1.6-4.9,8.9-8.1,12.8-9.8c0.2-0.1,0.5-0.2,0.8-0.3l0.6-0.2c0.5-0.2,0.9-0.4,1.4-0.5c1.3-0.5,3-1.3,4.2-2.3l0.7-0.7
		l0.7,0.7c1.7,1.8,4,2.8,6.5,2.8c2.5,0,4.8-1,6.5-2.8l0.7-0.7l0.7,0.7c1.2,1.1,2.9,1.8,4.1,2.3c0.6,0.2,1.1,0.4,1.6,0.6l0.6,0.2
		c0.4,0.1,0.6,0.2,0.9,0.4c3.9,1.7,11.1,4.9,12.8,9.8c0.3,1,0.5,3.2,0.3,4.7l-0.1,0.8H21.3l-0.1-0.8C20.9,77.3,21.1,75.2,21.4,74.2z
		"/>
</g>
</svg>
