<?xml version="1.0" encoding="utf-8"?>
<!-- Generator: Adobe Illustrator 18.0.0, SVG Export Plug-In . SVG Version: 6.00 Build 0)  -->
<svg version="1.1" id="Layer_1" xmlns="http://www.w3.org/2000/svg" xmlns:xlink="http://www.w3.org/1999/xlink" x="0px" y="0px"
	 viewBox="118.2 197.6 375.8 395.6" enable-background="new 118.2 197.6 375.8 395.6" xml:space="preserve">
<g>
	<path fill="#DB075E" d="M121.9,593.2h368.8l2.5-15.5c0.6-6.2,1.2-13.7,0-21.1c0-2.5-0.6-3.7-0.6-5.6c-0.6-1.9-0.6-3.1-0.6-4.4
		c-0.6-1.2-0.6-2.5-0.6-3.1c-1.2-3.1-1.9-5.6-3.1-7.5c-14.9-31.7-59.7-51.6-84-62.2c-2.5-1.2-3.7-1.9-5.6-2.5l-3.7-1.2l-1.2-0.6
		c-3.7-1.2-7.5-3.1-10.6-4.4l-4.4-1.9c-6.8-3.1-11.8-6.2-14.9-8.7l-3.7-4.4c-3.7-13.1,3.7-23.6,15.5-39.8c3.7-5,8.1-10.6,11.2-16.2
		c11.8-21.8,21.1-49.1,22.4-70.9c3.1-39.2-6.2-71.5-27.4-94.5c-18.7-20.5-44.8-31.1-75.9-31.1s-57.2,11.8-75.9,31.7
		c-21.1,23-30.5,55.4-27.4,94.5c1.9,21.1,10.6,49.1,22.4,70.9c3.1,5.6,6.8,10.6,11.2,16.2c10,13.1,19.3,24.9,15.5,38.6l-2.5,3.7
		l-0.6,1.2c-3.1,3.1-7.5,5.6-14.3,8.7l-3.7,1.9c-4.4,1.9-8.7,3.7-13.1,5l-3.7,1.2c-2.5,1.2-4.4,1.9-6.2,2.5
		c-26.7,11.8-70.9,31.1-84.6,64.1c-0.6,1.9-1.2,3.1-1.9,4.4c-0.6,1.9-0.6,2.5-1.2,3.1c-0.6,1.9-0.6,3.1-0.6,5
		c-0.6,1.9-0.6,3.7-0.6,5.6c-0.6,4.4-0.6,8.7-0.6,12.4c0,2.5,0,4.4,0.6,6.2v1.2v1.9L121.9,593.2z M246.3,403.5
		c-3.7-5-7.5-10-10-14.3c-11.2-19.9-19.3-46-21.1-65.3c-3.1-35.5,5.6-64.7,24.3-85.2c16.2-17.4,39.2-26.7,66.5-26.7
		c27.4,0,50.4,9.3,66.5,26.7c18.7,19.9,26.7,49.8,24.3,85.2c-1.9,19.9-10,45.4-21.1,65.3c-2.5,5-6.2,9.3-10.6,14.9
		c-8.7,11.2-18.7,24.9-18.7,40.4v2.5l-9.3,10c-8.1,8.7-19.3,13.7-31.1,13.7s-23-5-31.1-13.7l-9.3-10v-2.5
		C265.6,427.7,255,414,246.3,403.5z M133.1,546.5c10-30.5,55.4-50.4,79.6-61c1.2-0.6,3.1-1.2,5-1.9l3.7-1.2c3.1-1.2,5.6-2.5,8.7-3.1
		c8.1-3.1,18.7-8.1,26.1-14.3l4.4-4.4l4.4,4.4c10.6,11.2,24.9,17.4,40.4,17.4c15.5,0,29.9-6.2,40.4-17.4l4.4-4.4l4.4,4.4
		c7.5,6.8,18,11.2,25.5,14.3c3.7,1.2,6.8,2.5,10,3.7l3.7,1.2c2.5,0.6,3.7,1.2,5.6,2.5c24.3,10.6,69,30.5,79.6,61
		c1.9,6.2,3.1,19.9,1.9,29.2l-0.6,5H132.5l-0.6-5C130,565.8,131.2,552.7,133.1,546.5z"/>
</g>
</svg>
