<?xml version="1.0" encoding="utf-8"?>
<!-- Generator: Adobe Illustrator 18.1.1, SVG Export Plug-In . SVG Version: 6.00 Build 0)  -->
<svg version="1.1" id="Layer_1" xmlns="http://www.w3.org/2000/svg" xmlns:xlink="http://www.w3.org/1999/xlink" x="0px" y="0px"
	 viewBox="30 30 40 40" enable-background="new 30 30 40 40" xml:space="preserve">
<g>
	<path fill="#A154A1" d="M61.7,36.9h-2.1c-0.4,0-0.7,0.3-0.7,0.7c0,0.4,0.3,0.7,0.7,0.7h2.1c1.6,0,2.8,1.3,2.8,2.9v3.5h-29v-3.5
		c0-1.6,1.3-2.9,2.9-2.9h2c0.4,0,0.7-0.3,0.7-0.7c0-0.4-0.3-0.7-0.7-0.7h-2c-2.4,0-4.3,1.9-4.3,4.3v20.4c0,2.4,1.9,4.3,4.3,4.3h23.2
		c2.3,0,4.2-1.9,4.2-4.3V41.2C65.9,38.8,64,36.9,61.7,36.9z M61.7,64.5H38.4c-1.6,0-2.9-1.3-2.9-2.9V46.1h29v15.5
		C64.5,63.2,63.3,64.5,61.7,64.5z"/>
	<path fill="#A154A1" d="M46.1,38.3h7.8c0.4,0,0.7-0.3,0.7-0.7c0-0.4-0.3-0.7-0.7-0.7h-7.8c-0.4,0-0.7,0.3-0.7,0.7
		C45.4,38,45.7,38.3,46.1,38.3z"/>
	<path fill="#A154A1" d="M42.6,34.8v5.7c0,0.4,0.3,0.7,0.7,0.7c0.4,0,0.7-0.3,0.7-0.7v-5.7c0-0.4-0.3-0.7-0.7-0.7
		C42.9,34.1,42.6,34.4,42.6,34.8z"/>
	<path fill="#A154A1" d="M56,34.8v5.7c0,0.4,0.3,0.7,0.7,0.7s0.7-0.3,0.7-0.7v-5.7c0-0.4-0.3-0.7-0.7-0.7S56,34.4,56,34.8z"/>
	<path fill="#A154A1" d="M60.6,50.3H39.4c-0.4,0-0.7,0.3-0.7,0.7c0,0.4,0.3,0.7,0.7,0.7h21.1c0.4,0,0.7-0.3,0.7-0.7
		C61.3,50.6,60.9,50.3,60.6,50.3z"/>
	<path fill="#A154A1" d="M60.6,54.3H39.4c-0.4,0-0.7,0.3-0.7,0.7c0,0.4,0.3,0.7,0.7,0.7h21.1c0.4,0,0.7-0.3,0.7-0.7
		C61.3,54.6,60.9,54.3,60.6,54.3z"/>
	<path fill="#A154A1" d="M48.6,58.3h-9.1c-0.4,0-0.7,0.3-0.7,0.7c0,0.4,0.3,0.7,0.7,0.7h9.1c0.4,0,0.7-0.3,0.7-0.7
		C49.3,58.6,48.9,58.3,48.6,58.3z"/>
</g>
</svg>
